<svg width="285" height="285" viewBox="0 0 285 285" fill="none" xmlns="http://www.w3.org/2000/svg">
<path fill-rule="evenodd" clip-rule="evenodd" d="M146.613 169.832L213.22 112.249V79.0782L163.349 0H275C280.523 0 285 4.47715 285 10V275C285 280.523 280.523 285 275 285H182.254L255.469 180.712L244.324 104.288L146.67 184.693V285H138.179V188.142C138.179 170.773 98.7096 142.28 94.695 139.382L94.6024 139.316C59.8347 114.206 51.6135 75.3631 51.6135 71.3827C39.4068 102.165 25.6079 168.24 31.7687 192.388C39.7452 223.653 79.1732 250.36 104.744 262.975C121.02 271.005 131.736 278.975 136.164 285H10C4.47715 285 0 280.523 0 275V10C0 4.47715 4.47715 0 10 0H104.481L82.9261 32.905C78.3265 38.6545 69.1272 53.8156 69.1272 68.4637C69.1272 86.7737 76.7245 107.128 108.666 132.682C109.114 133.04 109.565 133.4 110.017 133.761L110.017 133.761C122.925 144.077 137.482 155.711 137.59 164.165L137.591 164.494C137.591 164.525 137.591 164.448 137.591 164.26C137.591 164.228 137.591 164.197 137.59 164.165C137.585 158.102 137.544 71.1236 137.694 0H146.613V166.117V169.832Z" fill="white" fill-opacity="0.6"/>
</svg>
