<svg width="947" height="288" viewBox="0 0 947 288" fill="none" xmlns="http://www.w3.org/2000/svg">
    <path d="M343.856 131H338.232V2.69275H343.856V131ZM382.858 131H377.233V39.6031H381.803V61.0462C386.197 46.6336 397.446 37.1424 415.022 37.1424H415.374C438.223 37.1424 450.351 52.7853 450.351 76.1618V131H444.726V74.7557C444.726 55.5975 434.18 42.4153 414.846 42.4153C395.161 42.4153 382.858 55.7733 382.858 75.4588V131ZM512.759 131H499.753L465.479 39.6031H471.279L503.444 125.727H509.068L537.893 39.6031H543.518L512.759 131ZM565.385 18.1599C561.518 18.1599 559.409 15.875 559.409 12.3597C559.409 9.02023 561.518 6.55955 565.385 6.55955C569.252 6.55955 571.361 9.02023 571.361 12.3597C571.361 15.875 569.252 18.1599 565.385 18.1599ZM572.064 131H566.44V44.876H550.621V39.6031H572.064V131ZM627.829 133.461C605.507 133.461 593.555 121.86 593.555 106.042H599.18C599.18 118.169 607.616 128.188 627.829 128.188C647.866 128.188 656.479 117.994 656.479 106.042C656.479 94.0897 646.46 87.938 633.102 86.5319L621.853 85.3015C606.562 83.5439 597.422 75.283 597.422 62.1008C597.422 48.567 608.319 36.7908 627.829 36.7908C645.933 36.7908 658.236 47.1609 658.236 62.1008H652.612C652.788 50.6761 643.648 42.0637 627.829 42.0637C610.604 42.0637 603.046 51.7307 603.046 62.4523C603.046 71.4162 609.725 78.7983 622.38 80.2044L633.629 81.4347C649.624 83.1924 662.103 90.926 662.103 106.393C662.103 121.333 650.151 133.461 627.829 133.461ZM687.699 18.1599C683.832 18.1599 681.723 15.875 681.723 12.3597C681.723 9.02023 683.832 6.55955 687.699 6.55955C691.565 6.55955 693.674 9.02023 693.674 12.3597C693.674 15.875 691.565 18.1599 687.699 18.1599ZM694.378 131H688.753V44.876H672.934V39.6031H694.378V131ZM768.422 133.812C748.209 133.812 734.148 121.86 728.524 106.393V131H723.954V2.69275H729.578V61.925C735.73 47.1609 749.264 36.7908 768.422 36.7908C796.72 36.7908 812.539 60.5189 812.539 84.7742V85.8288C812.539 108.678 797.423 133.812 768.422 133.812ZM768.07 128.539C793.38 128.539 806.914 107.096 806.914 85.3015C806.914 62.1008 792.677 42.0637 768.07 42.0637C744.87 42.0637 729.227 58.7613 729.227 80.5559V90.0471C729.227 110.436 744.167 128.539 768.07 128.539ZM839.576 131H833.951V7.96565H819.539V2.69275H839.576V131ZM905.311 133.812C874.729 133.812 860.667 109.733 860.667 85.3015V84.2469C860.667 60.3431 875.432 36.7908 904.257 36.7908C930.973 36.7908 946.44 57.7067 946.44 79.5013V85.1258H865.94C866.116 108.327 878.771 128.539 905.311 128.539C924.47 128.539 936.597 118.169 939.409 105.339H945.034C941.343 121.86 927.282 133.812 905.311 133.812ZM904.257 42.0637C880.88 42.0637 867.874 59.2885 866.116 79.8529H941.167C940.464 58.5855 926.754 42.0637 904.257 42.0637ZM391.488 287.812C344.559 287.812 327.334 251.956 327.334 221.725V219.616C327.334 187.1 347.195 153.529 388.676 153.529C418.555 153.529 439.12 171.281 442.459 197.997H436.835C433.671 173.039 413.986 158.802 388.676 158.802C352.117 158.802 332.959 188.154 332.959 220.671C332.959 250.902 349.48 282.539 391.488 282.539C409.943 282.539 425.234 276.212 434.901 265.49V233.677H386.566V228.756H453.005V233.677H440.526V267.072C430.507 279.551 413.81 287.812 391.488 287.812ZM494.671 287.461C477.27 287.461 462.857 277.442 462.857 259.163C462.857 242.641 474.985 231.919 496.077 231.919H526.484V223.131C526.484 207.488 519.102 197.997 498.889 197.997C489.573 197.997 480.785 198.7 474.106 199.755V194.482C480.961 193.427 489.046 192.724 496.077 192.724C523.32 192.724 532.108 203.973 532.108 224.537V285H527.538V265.315C522.793 280.254 509.61 287.461 494.671 287.461ZM495.022 282.539C509.61 282.539 525.781 274.981 526.484 251.956V236.841H495.022C477.797 236.841 468.482 245.805 468.482 259.339C468.482 273.927 479.731 282.539 495.022 282.539ZM565.796 285H560.171V193.603H564.741V216.804C568.784 200.985 580.208 192.9 601.827 192.9H604.815V198.173H600.421C577.22 198.173 565.796 209.949 565.796 232.798V285ZM654.527 287.812C626.229 287.812 610.411 264.084 610.411 239.829V238.774C610.411 215.925 625.526 190.791 654.527 190.791C673.861 190.791 687.395 201.688 693.371 216.277V156.693H698.995V285H694.426V260.745C688.625 276.563 674.564 287.812 654.527 287.812ZM654.879 282.539C678.08 282.539 693.722 265.842 693.722 244.047V234.556C693.722 214.167 678.783 196.064 654.879 196.064C629.569 196.064 616.035 217.507 616.035 239.302C616.035 262.502 630.272 282.539 654.879 282.539ZM764.701 287.812C734.118 287.812 720.057 263.733 720.057 239.302V238.247C720.057 214.343 734.821 190.791 763.646 190.791C790.362 190.791 805.829 211.707 805.829 233.501V239.126H725.33C725.505 262.327 738.16 282.539 764.701 282.539C783.859 282.539 795.987 272.169 798.799 259.339H804.423C800.732 275.86 786.671 287.812 764.701 287.812ZM763.646 196.064C740.27 196.064 727.263 213.289 725.505 233.853H800.556C799.853 212.585 786.144 196.064 763.646 196.064ZM830.711 285H825.086V193.603H829.656V215.046C834.05 200.634 845.299 191.142 862.876 191.142H863.227C886.076 191.142 898.204 206.785 898.204 230.162V285H892.58V228.756C892.58 209.598 882.034 196.415 862.7 196.415C843.014 196.415 830.711 209.773 830.711 229.459V285Z" fill="white"/>
    <path fill-rule="evenodd" clip-rule="evenodd" d="M146.69 169.934L213.332 112.32V79.1318L163.435 0.012085H285.15V285.162H182.35L255.604 180.819L244.453 104.355L146.748 184.802V285.162H138.252V188.253C138.252 170.874 98.7617 142.367 94.7449 139.468L94.6523 139.401C59.8663 114.278 51.6409 75.4148 51.6409 71.4322C39.4277 102.23 25.6216 168.341 31.7856 192.501C39.7663 223.783 79.215 250.504 104.799 263.125C121.084 271.159 131.805 279.134 136.236 285.162H0V0.012085H104.536L82.97 32.9344C78.368 38.6869 69.1639 53.8559 69.1639 68.5117C69.1639 86.8314 76.7652 107.196 108.724 132.763C109.172 133.122 109.622 133.482 110.075 133.844C122.99 144.165 137.554 155.805 137.663 164.263C137.663 164.671 137.664 164.713 137.664 164.358L137.663 164.319L137.663 164.263C137.657 158.197 137.617 71.173 137.767 0.012085H146.69V166.217V169.934Z" fill="white"/>
</svg>
